# xmcd
#
# Track frame offsets: 
#        182
#        13295
#        25932
#        35657
#        43782
#        54207
#        65382
#        75395
#        87957
#        95532
#        108032
#        118825
#        131832
#        141807
#        155045
#        166960
#        177770
#        190557
#        200832
#        211670
#        221570
#        233695
#        244895
#        258545
#        271482
#        286792
#
# Disc length: 3978 seconds
#
# Revision: 0
# Processed by: cddbd v1.4PL0 Copyright (c) Steve Scherf et al.
# Submitted via: ExactAudioCopy v0.90b3
#
DISCID=710f881a
DTITLE=Jim Reeves - Welcome To My World - Disc 14
DYEAR=1900
DGENRE=Country
TTITLE0=Distant Drum (1966)
TTITLE1=Blue Side Of Lonesome (1966)
TTITLE2=The Storm (1967)
TTITLE3=Trying To Forget (1967)
TTITLE4=I Heard A Heart Break Last Night (1967)
TTITLE5=That's When I See The Blues (In Your Pretty Brown Eyes) (1968)
TTITLE6=When Two Worlds Collide (1969)
TTITLE7=Nobody's Fool (1969)
TTITLE8=Gypsy Feet (1971)
TTITLE9=The Writing's On The Wall (1971)
TTITLE10=Am I That Easy To Forget (1973)
TTITLE11=I'd Fight The World (1974)
TTITLE12=You Belong To Me (1975)
TTITLE13=You'll Never Know (1975)
TTITLE14=I Love You Because (1976)
TTITLE15=It's Nothin' To Me (1977)
TTITLE16=Little Ole Me (1977)
TTITLE17=You're The Only Good Thing (That's Happened To Me (1978)
TTITLE18=Don't Let Me Cross Over (& Deborah Allen) (1979)
TTITLE19=Oh, How I Miss You Tonight (1979)
TTITLE20=Take Me In Your Arms And Hold Me (& Deborah Allen) (1980)
TTITLE21=There's Always Me (1980)
TTITLE22=Have You Ever Been Lonely (& Patsy Cline) (1981)
TTITLE23=I Fall To Pieces (& Patsy Cline) (1982)
TTITLE24=The Jim Reeves Medley (1983)
TTITLE25=The Image Of Me (1984)
EXTD=
EXTT0=
EXTT1=
EXTT2=
EXTT3=
EXTT4=
EXTT5=
EXTT6=
EXTT7=
EXTT8=
EXTT9=
EXTT10=
EXTT11=
EXTT12=
EXTT13=
EXTT14=
EXTT15=
EXTT16=
EXTT17=
EXTT18=
EXTT19=
EXTT20=
EXTT21=
EXTT22=
EXTT23=
EXTT24=
EXTT25=
PLAYORDER=
